<?xml version="1.0" standalone="no"?><!DOCTYPE svg PUBLIC "-//W3C//DTD SVG 1.1//EN" "http://www.w3.org/Graphics/SVG/1.1/DTD/svg11.dtd"><svg t="1644820646570" class="icon" viewBox="0 0 1024 1024" version="1.1" xmlns="http://www.w3.org/2000/svg" p-id="1434" xmlns:xlink="http://www.w3.org/1999/xlink" width="250" height="250"><defs><style type="text/css"></style></defs><path d="M887.854918 409.755847c12.291445-59.090804-11.869016-127.204358-69.130663-176.439859a236.966101 236.966101 0 0 0-74.335149-43.3256C704.512656 108.227876 615.462224 51.26562 511.917975 51.26562c-100.287856 0-187.004678 53.426979-228.587248 131.071836-35.504518 8.227107-70.389747 25.243191-100.316565 50.978532-63.323294 54.44819-86.126242 131.978212-63.954886 194.870875-33.154502 39.630375-52.918424 89.276001-52.918424 143.203332 0 129.730727 114.08446 234.899071 254.827043 234.899071 33.581032 0 65.619994-6.016533 94.972637-16.909452 28.835886 0 62.904966-21.945787 99.434796-21.945786 35.139507 0 41.820442 4.65902 96.125089 23.159756a273.007882 273.007882 0 0 0 91.531688 15.691381c140.73438 0 254.827043-105.168343 254.827043-234.89497-0.008202-62.650689-26.633515-119.53092-70.00423-161.634348z" fill="#57B57A" p-id="1435"></path><path d="M454.213393 790.077027c-9.596924 59.090804-20.124832 121.150913-31.288433 182.657353h187.595258s-11.409676-59.574752-34.671964-182.640948" fill="#A5A5C6" p-id="1436"></path><path d="M610.520218 1003.493752H422.92496a30.742967 30.742967 0 0 1-30.263121-36.250945c10.183403-56.105095 20.6785-117.369561 31.190003-182.091381 2.72323-16.77001 18.537648-28.118167 35.291253-25.431849a30.759372 30.759372 0 0 1 25.427748 35.291253 10579.111823 10579.111823 0 0 1-24.886383 146.968279h113.649728c-5.700737-29.939122-14.912144-78.444601-27.712144-146.172637a30.755271 30.755271 0 0 1 24.513169-35.935149c16.663377-3.145658 32.781288 7.816982 35.935149 24.513169 23.249984 122.988273 34.655559 182.542518 34.65966 182.567126a30.747068 30.747068 0 0 1-30.209804 36.542134z" fill="#6E6E96" p-id="1437"></path><path d="M792.636206 380.079205c10.007049-48.111759-9.662544-103.577059-56.293752-143.662672a193.004806 193.004806 0 0 0-60.526241-35.278949C643.350721 134.557898 570.840628 88.176866 486.53124 88.176866c-81.659981 0-152.267094 43.501955-186.127011 106.726819-28.909708 6.697341-57.314963 20.551362-81.684588 41.508747-51.56091 44.334508-70.131368 107.465043-52.073566 158.673246-26.994425 32.268632-43.087728 72.690548-43.087728 116.602627 0 105.631785 92.893303 191.269978 207.490419 191.269978 27.343031 0 53.43108-4.896892 77.329062-13.767895 23.479654 0 51.220506-17.865043 80.962768-17.865044 28.614418 0 34.056777 3.793656 78.272349 18.857546a222.263121 222.263121 0 0 0 74.532009 12.779494c114.588914 0 207.49042-85.634092 207.490419-191.265876-0.004101-51.023646-21.683307-97.339058-56.999167-131.617303z" fill="#69DB94" p-id="1438"></path><path d="M144.839731 596.133034s-26.932906-118.25133 60.169433-118.251329 95.780583 118.25133 157.299327 34.118295c77.480807-105.959885-135.132073-255.995899-200.510093-179.060558-0.004101 0-104.266069 179.454277-16.958667 263.193592zM610.520218 126.142134S509.953476 239.266902 567.370971 292.583146s136.66594-60.583659 207.78571-17.376994c0 0-104.179942-120.273246-164.636463-149.064018z" fill="#57B57A" p-id="1439"></path><path d="M920.623903 399.363281c7.521692-67.44505-22.868568-138.659148-81.844537-189.362897a266.351554 266.351554 0 0 0-72.452676-44.50676C717.776097 77.025569 619.3215 20.506248 511.917975 20.506248 407.72983 20.506248 313.655367 72.022044 263.029542 155.847485a267.799295 267.799295 0 0 0-100.07049 54.148798C96.535213 267.106184 67.11695 348.495482 85.064018 421.690484c-32.563922 44.174559-49.682538 95.596027-49.682538 149.703813 0 146.488433 128.114835 265.658443 285.586415 265.658443 34.733483 0 68.650817-5.749952 100.898943-17.106313 16.392695-1.062224 32.227619-6.283114 47.595001-11.35636 16.204037-5.343928 31.509901-10.392566 45.909388-10.392566 24.324511 0 29.516693 1.812752 63.327395 13.607946 6.607113 2.304902 14.128805 4.929702 22.495354 7.775969 32.617238 11.590131 66.879077 17.467222 101.834028 17.467222 157.47158 0 285.586415-119.174111 285.586414-265.658443-0.004101-63.54066-24.029221-124.034092-67.990515-172.026914z m-217.587697 376.170715a242.523294 242.523294 0 0 1-81.610765-14.050882 3080.977635 3080.977635 0 0 1-22.454342-7.763665c-35.549632-12.398078-48.849984-17.040692-83.595771-17.040692-24.283499 0-46.011919 7.168984-65.185261 13.48901-13.177315 4.351426-25.624607 8.456777-34.249535 8.456776h-5.524383l-5.179879 1.923486c-26.797565 9.94553-55.149503 14.985966-84.272476 14.985967-123.550144 0-224.067671-91.576802-224.067671-204.139699 0-41.205255 13.304454-80.466517 38.53124-114.264915 1.390324-0.967895 2.735533-2.030119 3.986415-3.252291 0.26248-0.254277 26.920602-25.284204 61.596667-24.176867 23.282794 0.75463 46.233387 13.534124 68.207882 37.985774a30.677347 30.677347 0 0 0 22.889074 10.195707 30.759372 30.759372 0 0 0 22.864467-51.323038C281.362128 389.159372 243.688049 369.52669 203.003653 368.21429c-23.610894-0.771035-44.576482 4.999423-61.551554 12.467799-0.779237-43.563473 21.256777-89.333419 61.621275-124.038193 25.124255-21.609484 55.280743-36.935854 87.20487-44.334508l13.58744-3.14976 6.582506-12.295546c37.936559-70.832682 115.13438-114.834989 201.473886-114.834989 67.945402 0 131.125152 28.15918 173.076835 74.655047-37.895546 5.729446-77.739186 26.051137-97.847613 76.336558a30.759372 30.759372 0 0 0 57.122204 22.843961c20.387312-50.97033 79.510926-39.261262 90.822172-36.49702a205.267542 205.267542 0 0 1 63.581673 37.280358c46.893688 40.315284 69.528484 96.584428 59.070298 146.849344l-3.44505 16.556744 12.135598 11.778789c39.117719 37.97347 60.661583 87.541173 60.669785 139.569625-0.008202 112.554694-100.521628 204.131496-224.071772 204.131497z" fill="#6E6E96" p-id="1440"></path><path d="M735.518103 673.999359m-53.316245 0a53.316245 53.316245 0 1 0 106.63249 0 53.316245 53.316245 0 1 0-106.63249 0Z" fill="#57B57A" p-id="1441"></path><path d="M682.193656 473.755847m-19.788529 0a19.788529 19.788529 0 1 0 39.577058 0 19.788529 19.788529 0 1 0-39.577058 0Z" fill="#57B57A" p-id="1442"></path><path d="M805.366485 633.109901m-69.844281 0a69.844281 69.844281 0 1 0 139.688562 0 69.844281 69.844281 0 1 0-139.688562 0Z" fill="#57B57A" p-id="1443"></path><path d="M656.249151 719.728292m-45.728933 0a45.728933 45.728933 0 1 0 91.457866 0 45.728933 45.728933 0 1 0-91.457866 0Z" fill="#57B57A" p-id="1444"></path><path d="M580.088946 626.564306m-30.431272 0a30.431272 30.431272 0 1 0 60.862544 0 30.431272 30.431272 0 1 0-60.862544 0Z" fill="#57B57A" p-id="1445"></path><path d="M400.995578 211.981288m-21.929381 0a21.929382 21.929382 0 1 0 43.858763 0 21.929382 21.929382 0 1 0-43.858763 0Z" fill="#FFFFFF" p-id="1446"></path><path d="M435.228709 323.342518m-43.063121 0a43.063121 43.063121 0 1 0 86.126242 0 43.063121 43.063121 0 1 0-86.126242 0Z" fill="#FFFFFF" p-id="1447"></path><path d="M580.088946 484.402691m-30.431272 0a30.431272 30.431272 0 1 0 60.862544 0 30.431272 30.431272 0 1 0-60.862544 0Z" fill="#FFFFFF" opacity=".5" p-id="1448"></path><path d="M211.140532 548.222236m-33.388273 0a33.388273 33.388273 0 1 0 66.776546 0 33.388273 33.388273 0 1 0-66.776546 0Z" fill="#FFFFFF" opacity=".6" p-id="1449"></path></svg>